PathFileType	4	(X/Y/Z)	C:\Users\Willi\Documents\Github\OpenSimMatlabBasic\ExampleData\Trials\dynamic04\marker_experimental.trc
DataRate	CameraRate	NumFrames	NumMarkers	Units	OrigDataRate	OrigDataStartFrame	OrigNumFrames
150.000000	150.000000	2	179	mm	150.000000	183	366
Frame#	Time	LFHD			LBHD			RFHD			RBHD			C7			T10			CLAV			STRN			RBAK			LSHO			LUPA			LELB			LFRA			LWRB			LWRA			LFIN			RSHO			RUPA			RELB			RFRA			RWRB			RWRA			RFIN			SACR			LASI			LT1			LT2			LT3			LS1			LS2			LS3			LHEE			LTOE			RT1			RT2			RT3			RS1			RS2			RS3			RHEE			RTOE			SACO			SACA			SACL			SACP			RASI			RM5D			LM5D			LKNE			RKNE			LANK			RANK			LKJC			RKJC			LAJC			RAJC			LTHI			RTHI			LTIB			RTIB			P_ForcePlate1			P_ForcePlate2			P_ForcePlate3			funktRKJC			funktLKJC			funktRHIP			funktLHIP			LHJC			RHJC			LKNEshank			RKNEshank			LKJCshank			RKJCshank			LHF			COP_FP1			VECTIP_FP1			RawCentreFP1			COP_FP2			VECTIP_FP2			RawCentreFP2			COP_FP3			VECTIP_FP3			RawCentreFP3			LPelvisAngles			RPelvisAngles			LFootProgressAngles			RFootProgressAngles			LHipAngles			RHipAngles			LKneeAngles			RKneeAngles			LAnkleAngles			RAnkleAngles			LFFootAngles			RFFootAngles			LAbsAnkleAngle			RAbsAnkleAngle			RNeckAngles			LNeckAngles			RSpineAngles			LSpineAngles			LShoulderAngles			LElbowAngles			LWristAngles			RShoulderAngles			RElbowAngles			RWristAngles			RThoraxAngles			LThoraxAngles			RHeadAngles			LHeadAngles			LHipPower			LKneePower			LAnklePower			RHipPower			RKneePower			RAnklePower			LWaistPower			RWaistPower			LNeckPower			RNeckPower			LShoulderPower			RShoulderPower			LElbowPower			RElbowPower			LWristPower			RWristPower			F_ForcePlate1			F_ForcePlate2			F_ForcePlate3			LHipForce			RHipForce			LKneeForce			RKneeForce			LAnkleForce			RAnkleForce			LNormalisedGRF			RNormalisedGRF			LGroundReactionForce			RGroundReactionForce			LGRF			RGRF			LWaistForce			RWaistForce			LNeckForce			RNeckForce			LShoulderForce			RShoulderForce			LElbowForce			RElbowForce			LWristForce			RWristForce			Force_FP1			RawForceFP1			Force_FP2			RawForceFP2			Force_FP3			RawForceFP3			LHipMoment			RHipMoment			LKneeMoment			RKneeMoment			LAnkleMoment			RAnkleMoment			LGroundReactionMoment			RGroundReactionMoment			LWaistMoment			RWaistMoment			LNeckMoment			RNeckMoment			LShoulderMoment			RShoulderMoment			LElbowMoment			RElbowMoment			LWristMoment			RWristMoment			RawMomentFP1			RawMomentFP2			RawMomentFP3			
		X1	Y1	Z1	X2	Y2	Z2	X3	Y3	Z3	X4	Y4	Z4	X5	Y5	Z5	X6	Y6	Z6	X7	Y7	Z7	X8	Y8	Z8	X9	Y9	Z9	X10	Y10	Z10	X11	Y11	Z11	X12	Y12	Z12	X13	Y13	Z13	X14	Y14	Z14	X15	Y15	Z15	X16	Y16	Z16	X17	Y17	Z17	X18	Y18	Z18	X19	Y19	Z19	X20	Y20	Z20	X21	Y21	Z21	X22	Y22	Z22	X23	Y23	Z23	X24	Y24	Z24	X25	Y25	Z25	X26	Y26	Z26	X27	Y27	Z27	X28	Y28	Z28	X29	Y29	Z29	X30	Y30	Z30	X31	Y31	Z31	X32	Y32	Z32	X33	Y33	Z33	X34	Y34	Z34	X35	Y35	Z35	X36	Y36	Z36	X37	Y37	Z37	X38	Y38	Z38	X39	Y39	Z39	X40	Y40	Z40	X41	Y41	Z41	X42	Y42	Z42	X43	Y43	Z43	X44	Y44	Z44	X45	Y45	Z45	X46	Y46	Z46	X47	Y47	Z47	X48	Y48	Z48	X49	Y49	Z49	X50	Y50	Z50	X51	Y51	Z51	X52	Y52	Z52	X53	Y53	Z53	X54	Y54	Z54	X55	Y55	Z55	X56	Y56	Z56	X57	Y57	Z57	X58	Y58	Z58	X59	Y59	Z59	X60	Y60	Z60	X61	Y61	Z61	X62	Y62	Z62	X63	Y63	Z63	X64	Y64	Z64	X65	Y65	Z65	X66	Y66	Z66	X67	Y67	Z67	X68	Y68	Z68	X69	Y69	Z69	X70	Y70	Z70	X71	Y71	Z71	X72	Y72	Z72	X73	Y73	Z73	X74	Y74	Z74	X75	Y75	Z75	X76	Y76	Z76	X77	Y77	Z77	X78	Y78	Z78	X79	Y79	Z79	X80	Y80	Z80	X81	Y81	Z81	X82	Y82	Z82	X83	Y83	Z83	X84	Y84	Z84	X85	Y85	Z85	X86	Y86	Z86	X87	Y87	Z87	X88	Y88	Z88	X89	Y89	Z89	X90	Y90	Z90	X91	Y91	Z91	X92	Y92	Z92	X93	Y93	Z93	X94	Y94	Z94	X95	Y95	Z95	X96	Y96	Z96	X97	Y97	Z97	X98	Y98	Z98	X99	Y99	Z99	X100	Y100	Z100	X101	Y101	Z101	X102	Y102	Z102	X103	Y103	Z103	X104	Y104	Z104	X105	Y105	Z105	X106	Y106	Z106	X107	Y107	Z107	X108	Y108	Z108	X109	Y109	Z109	X110	Y110	Z110	X111	Y111	Z111	X112	Y112	Z112	X113	Y113	Z113	X114	Y114	Z114	X115	Y115	Z115	X116	Y116	Z116	X117	Y117	Z117	X118	Y118	Z118	X119	Y119	Z119	X120	Y120	Z120	X121	Y121	Z121	X122	Y122	Z122	X123	Y123	Z123	X124	Y124	Z124	X125	Y125	Z125	X126	Y126	Z126	X127	Y127	Z127	X128	Y128	Z128	X129	Y129	Z129	X130	Y130	Z130	X131	Y131	Z131	X132	Y132	Z132	X133	Y133	Z133	X134	Y134	Z134	X135	Y135	Z135	X136	Y136	Z136	X137	Y137	Z137	X138	Y138	Z138	X139	Y139	Z139	X140	Y140	Z140	X141	Y141	Z141	X142	Y142	Z142	X143	Y143	Z143	X144	Y144	Z144	X145	Y145	Z145	X146	Y146	Z146	X147	Y147	Z147	X148	Y148	Z148	X149	Y149	Z149	X150	Y150	Z150	X151	Y151	Z151	X152	Y152	Z152	X153	Y153	Z153	X154	Y154	Z154	X155	Y155	Z155	X156	Y156	Z156	X157	Y157	Z157	X158	Y158	Z158	X159	Y159	Z159	X160	Y160	Z160	X161	Y161	Z161	X162	Y162	Z162	X163	Y163	Z163	X164	Y164	Z164	X165	Y165	Z165	X166	Y166	Z166	X167	Y167	Z167	X168	Y168	Z168	X169	Y169	Z169	X170	Y170	Z170	X171	Y171	Z171	X172	Y172	Z172	X173	Y173	Z173	X174	Y174	Z174	X175	Y175	Z175	X176	Y176	Z176	X177	Y177	Z177	X178	Y178	Z178	X179	Y179	Z179	

184	1.22	186.4889984130859	1238.36572265625	226.1177825927734	59.51026153564451	1258.689575195312	202.0949096679687	190.8356323242187	1234.955444335938	339.7703857421874	58.51770401000972	1263.998291015625	369.6419067382812	-15.43171787261966	1116.630981445312	279.0676269531249	-52.78347778320316	968.4252319335938	280.1216430664062	96.03409576416013	1066.43310546875	282.5960998535156	122.0184860229492	1012.34423828125	283.1366271972656	-53.56225204467778	1040.3505859375	358.1150207519531	38.16297531127928	1087.147583007812	143.6802673339843	10.48760414123534	897.2049560546875	78.61918640136713	20.15963745117187	834.279541015625	54.60351562499995	58.83515548706054	770.1807250976562	29.97076797485348	142.4807434082031	674.8560180664062	9.395614624023414	198.9600982666016	715.9778442382812	26.74160957336424	225.0911865234375	675.94921875	-14.56072711944581	14.3972253799438	1087.0029296875	416.0159301757812	-33.69311523437506	987.239501953125	451.5804138183593	-85.46648406982428	844.8460083007812	463.7003173828124	-128.4737396240235	700.7548217773438	455.5542297363281	-138.4618072509766	658.3052978515625	456.7360839843749	-68.80560302734381	640.9365844726562	469.5633239746093	-101.1103744506837	579.3469848632812	482.6520080566406	-31.74418640136722	763.4185791015625	288.2324829101562	92.42691802978514	727.273193359375	168.4700012207031	35.25695800781249	533.6116333007812	140.2025604248047	-32.66669845581057	432.3082580566406	156.7772674560547	32.56183242797849	432.2663269042969	149.9457397460937	-134.1785888671875	255.5716705322266	149.1674346923828	-254.2280883789063	251.8491516113281	177.5532531738281	-145.8958282470703	158.6244201660156	157.3282012939453	-283.3184204101562	142.8310852050781	231.5277557373047	-173.677719116211	45.12396240234376	208.6896820068359	147.1555175781249	535.9328002929688	410.8749084472656	137.3570251464843	421.6083984375	392.3277893066406	183.6645812988281	442.1361083984375	388.0762023925781	192.4155731201171	226.97607421875	390.1667175292969	127.1620025634765	123.0403671264649	376.5537719726562	264.5361633300781	163.6643524169922	368.3376159667969	182.7734375	38.85736465454104	301.4521789550781	335.7263488769531	51.14683532714846	334.4971923828126	4.558037281036341	755.2158813476562	290.0298461914062	9.503889083862269	754.0546264648438	289.5941772460937	4.061632156372036	755.00390625	284.9595031738281	15.92424774169918	804.8206787109375	286.8432617187499	114.5232696533203	736.7081298828125	394.1626586914062	317.9393615722656	29.14454650878908	360.9168395996094	-200.9785614013672	28.34163856506349	180.72509765625	-0.2682029008865554	370.3379821777344	161.5701599121093	189.4523315429687	385.90478515625	374.6296997070312	-258.0119018554688	126.133903503418	186.6773071289062	221.1521606445312	55.21385955810549	350.69482421875	1.979388713836644	363.5552673339844	213.324462890625	177.5565795898437	381.3966369628906	323.41845703125	-237.4196319580078	121.41845703125	219.9208526611328	234.3047637939453	67.27505493164064	315.4835205078126	23.60573577880858	523.873779296875	132.8622131347656	143.4348449707031	530.578369140625	421.8807983398437	-161.5926208496094	262.0357666015625	133.2178955078124	174.5053100585937	201.991928100586	401.0352478027344	219.21826171875	1.889965286549306e-14	308.6547546386719	-185.4405517578125	1.365466231747551e-14	222.99755859375	-950.1600341796875	1.404999971389795	394.6300048828124	0	0	0	0	0	0	0	0	0	0	0	0	54.60850143432614	667.9622802734375	237.3670043945312	63.95971679687496	671.6597900390625	338.8502197265624	3.2763087749481	364.4277954101562	165.5030364990234	185.2633819580078	395.7646789550781	374.6907653808594	3.858144760131809	359.5890808105469	217.5204772949218	180.6266784667968	391.9811706542969	322.2642822265625	0.1760493218898773	-2.640959978103638	-0.1754701137542723	219.21826171875	1.889965286549306e-14	308.6547546386719	172.8255004882812	278.9905395507812	314.428955078125	256.7200012207031	0.07899999618532701	396.4200134277344	-185.4405517578125	1.365466231747551e-14	222.99755859375	-125.1546707153321	166.0494384765625	220.7808227539062	-254.2699890136719	-0.2560999989509441	231.3000030517578	-950.1600341796875	1.404999971389795	394.6300048828124	-950.1600341796875	1.404999971389795	394.6300048828124	-254.2699890136719	-0.2560999989509441	231.3000030517578	-12.90575218200684	-4.911146640777588	-3.58290457725525	-12.90575218200684	4.911146640777588	3.582904577255247	-44.72243881225586	-4.657021999359131	-1.10866248607636	-1.127359628677368	-8.671687126159668	-3.638730764389038	-3.796938896179198	1.442184090614318	-7.731457233428956	-34.74275970458984	7.882132053375244	3.003468990325923	-35.191650390625	-22.64238739013672	2.629981517791745	-11.13313674926758	-37.30916595458984	1.352200865745545	-0.0459093302488327	23.57157707214355	-0.01694789156317856	11.33963108062744	13.68078708648682	2.246501684188843	-3.18055471858951e-15	9.939233892638914e-16	1.590277359294755e-15	2.186631435204738e-15	1.590277359294755e-15	-5.193249632141472e-15	-5.690215110778809	0	-6.96850372187517e-16	6.477521419525146	0	7.93267587282989e-16	-7.551009654998779	-2.65036153793335	0.1144518405199043	-7.551009654998779	2.65036153793335	-0.1144518405199062	9.610925674438477	6.295768737792969	3.360549688339234	9.610925674438477	-6.295768737792969	-3.360549688339232	3.855982542037962	-10.98714160919189	16.2612419128418	-53.93364715576172	-2.28602358397223e-12	-7.400105515211872e-15	-14.9559268951416	103.9232482910156	6.237508296966545	29.15893173217773	0.9606796503067021	6.924682617187504	-32.46042633056641	3.259819985560602e-13	-4.154542896309703e-15	-3.159978628158569	81.51738739013672	0.7768064737319893	-3.216191053390503	-1.32525897026062	0.4509009122848507	-3.216191053390503	1.32525897026062	-0.4509009122848515	10.76811408996582	1.269391298294067	0.5076757669448865	10.76811408996582	-1.269391298294067	-0.5076757669448838	3.300676516887344e-33	0.4401606917381287	-2.695206911237921e-17	-1.215998283041321e-32	-1.621590733528137	9.929379506711208e-17	1.763465594494915e-32	2.351664066314697	-1.439978935741071e-16	1.449043220768986e-33	0.1932367086410522	-1.183233583575172e-17	-2.079995534012209e-33	-0.2773771584033966	1.69844524597654e-17	3.912015915308131e-34	0.05216856673359871	-3.194403413320338e-18	2.381119030376914e-34	0.03175333887338638	-1.944331240676693e-18	2.381119030376914e-34	0.03175333887338638	-1.944331240676693e-18	-2.807132326345946e-33	-0.3743442595005035	2.292197495882389e-17	-2.807132326345946e-33	-0.3743442595005035	2.292197495882389e-17	2.194445249934459e-34	0.02926395647227764	-1.791900531208114e-18	5.692401677792027e-35	0.007591084577143192	-4.648198714727625e-19	7.401269619586365e-36	0.0009869940113276243	-6.043595283749908e-20	6.692551079157929e-35	0.008924830704927444	-5.464882677860705e-19	-2.739743927497327e-36	-0.0003653577005024999	2.237170692321119e-20	9.447673379468459e-36	0.001259891549125314	-7.714610764545579e-20	172.8255004882812	278.9905395507812	314.428955078125	-125.1546783447266	166.0494384765625	220.7808227539062	-950.1600341796875	1.404999971389795	394.6300048828124	0.1760493218898773	-2.640960216522217	-0.1754701137542723	1.680925607681274	-5.656101226806641	0.1955746561288839	-1.817469358444214	-3.343240737915039	-0.9752248525619507	0.2933114469051361	-7.021185874938965	-0.1984122246503826	-4.141402721405029	2.028640508651733	-0.1649550795555121	-7.449793815612793	1.319288849830627	-0.1272170394659052	-17.11929893493652	46.63496780395508	-0.7116748094558766	12.9838695526123	78.40438079833984	-1.37552893161774	1.679403185844421	4.574890613555908	-0.06981530040502555	-1.273717522621155	7.691469669342041	0.1349393874406808	1.679403185844421	4.574890613555908	-0.06981530040502555	-1.273717522621155	7.691469669342041	0.1349393874406808	-1.015713214874268	-6.694167137145996	0.3723013103008273	-1.015713214874268	-6.694167137145996	0.3723013103008273	0.9739205837249756	-1.187453746795654	0.07949230819940586	0.9739205837249756	-1.187453746795654	0.07949230819940586	-0.1625789552927017	0.5275139212608337	-0.1678299754858018	-0.2032624632120132	0.5592830777168274	0.1013588234782218	0.08978385478258133	0.199153795838356	-0.04900611564517021	0.118922121822834	0.2474740594625473	0.07321885973215103	-0.008927484042942522	0.05206503346562386	-0.008932249620556837	-0.02630818635225297	0.06712331622838974	0.06267332285642624	172.8255004882812	278.9905395507812	314.428955078125	-46.39275360107422	278.9905395507812	5.774196147918679	-125.1546783447266	166.0494384765625	220.7808227539062	60.28588485717773	166.0494384765625	-2.216749429702761	-950.1600341796875	1.404999971389795	394.6300048828124	60.28588485717773	166.0494384765625	-2.216749429702761	247.6307678222656	-10.45126914978028	-76.23232269287107	-424.9495849609375	-16.25084114074707	33.52056503295893	-261.3956604003906	-25.19352531433106	-99.77237701416018	-155.3836975097656	-0.3807396292686461	2.089891910552959	-422.7200622558594	-21.27458572387695	73.98680114746088	217.5169219970703	0.006017253268510826	11.79633331298831	43.42482376098629	32.41374588012697	310.8238220214844	669.6393432617188	108.003677368164	-288.7018432617187	16.84769630432129	-25.69329833984375	-26.39011764526367	16.84769630432129	25.69329833984375	26.39011764526368	-710.313232421875	-91.80570983886719	-39.30971908569344	-710.313232421875	91.80570983886719	39.30971908569327	-29.18829345703125	-1.592381954193114	23.63510704040527	7.358554840087886	-8.316206932067869	32.81937789916992	1.156152009963989	0.01157320942729724	1.978380084037781	25.38755798339843	-0.09143883734941388	15.3508358001709	0.2906952798366547	-8.43548762381315e-17	-0.3287003934383392	-2.03548550605774	-1.095297885516234e-15	4.489372730255127	24485.677734375	4298.757812499999	-10462.630859375	1378.614624023436	1052.570190429688	11429.087890625	1378.614624023436	1052.570190429688	11429.087890625	
185	1.226666666666667	194.6802062988281	1238.895385742188	227.0196380615234	67.78266143798825	1259.447021484375	202.7523040771484	198.8200988769531	1235.607299804688	340.6745910644531	66.51589965820308	1264.954956054688	370.2984313964843	-7.445233345031773	1117.411987304688	279.6505737304687	-44.65595245361332	969.1339721679688	280.7509460449218	104.0359268188476	1067.434204101562	283.6467285156249	130.1361999511718	1013.441101074219	284.3400268554687	-45.80088424682621	1041.032958984375	358.5974731445312	46.73245239257811	1087.999389648438	144.5106201171874	18.51252555847167	898.187744140625	79.67470550537104	27.89507102966308	835.2183837890625	55.68055343627925	66.68502807617188	771.05810546875	31.10525131225582	150.556884765625	675.9213256835938	10.615439414978	206.8652801513672	717.0978393554688	28.32974815368651	233.1451416015625	677.461181640625	-13.16052722930909	21.71990585327143	1088.058959960938	416.6764831542968	-26.02374076843267	988.1387329101562	452.1434936523437	-77.07379150390631	845.3270874023438	464.3593139648437	-118.4191970825196	700.766357421875	456.5357666015624	-127.8885498046876	658.1986694335938	457.8361511230468	-58.12340545654303	641.7447509765625	470.7271728515624	-89.42853546142584	579.7413330078125	483.7338256835937	-23.28070259094242	764.4228515625	289.0179443359374	100.8142929077148	727.715576171875	169.3353118896484	45.3401527404785	533.9900512695312	140.1462860107422	-20.80028533935549	431.4905090332031	156.1235809326172	44.29436874389646	432.54296875	148.7589721679687	-123.7010803222656	258.4501647949219	148.181167602539	-243.3570556640625	257.26220703125	178.4949645996093	-137.6308288574219	161.7336120605469	155.362808227539	-273.6405944824219	149.8051452636719	231.1528015136718	-171.0001525878907	45.16306304931642	208.8443298339843	156.0804901123046	537.4122314453125	411.0240783691406	145.7058563232421	423.088623046875	393.18359375	192.008560180664	443.44775390625	388.163818359375	197.8888244628906	227.4942626953125	390.7050476074219	130.6961212158203	124.7919235229492	378.8882446289062	268.5990600585937	162.8721618652344	367.5945129394532	183.3023376464843	39.64722824096682	302.0412902832031	336.8709716796874	49.51559829711916	334.3526000976563	13.17017555236813	756.2001953125	290.8369140624999	18.11522865295407	755.037109375	290.3969116210937	12.66394519805905	755.9652709960938	285.7685546874999	24.52835845947262	805.7904052734375	287.4039306640624	123.3279190063476	738.1624755859375	394.7379150390624	318.7109680175781	27.90747833251955	361.2223815917969	-198.6829528808594	30.32970809936525	180.7465515136718	12.55933094024656	369.9471435546875	159.9512939453125	197.4570617675781	387.0986633300781	374.8999633789062	-250.0341796875	131.5908508300781	186.1611022949218	223.1173095703124	55.16962814331057	351.2864990234375	15.35167789459226	362.6197814941406	211.604751586914	184.8152770996093	382.3776550292969	323.8869934082031	-229.0296630859375	125.9661483764649	219.0028991699218	235.7239379882812	66.90354156494142	315.7662353515626	33.60875701904295	524.6788330078125	132.3578948974609	152.7564086914062	531.9094848632812	422.2059020996093	-151.5673217773438	265.8916931152344	132.9636077880859	180.1683502197265	203.0865173339844	402.2290954589844	222.9910125732422	1.911428372800598e-14	312.1599426269531	-192.3574981689453	1.354663212272926e-14	221.2332916259765	-950.1600341796875	1.404999971389795	394.6300048828124	0	0	0	0	0	0	0	0	0	0	0	0	63.12199783325192	668.7108764648438	238.4721984863281	72.66992950439449	672.86767578125	339.9193420410156	16.61403465270994	363.7372741699219	163.5644226074218	193.052261352539	396.3207702636719	374.7527770996094	17.91643524169919	358.2404174804688	215.5033721923828	187.2715148925781	392.4325256347656	322.4478149414062	0.04962642863392832	-1.433856248855591	-0.1747349947690963	222.9910125732422	1.911428372800598e-14	312.1599426269531	171.8219604492187	300.8284301757812	308.6824035644531	256.7200012207031	0.07899999618532701	396.4200134277344	-192.3574981689453	1.354663212272926e-14	221.2332916259765	-147.0267333984375	124.7701110839844	217.2408294677734	-254.2699890136719	-0.2560999989509441	231.3000030517578	-950.1600341796875	1.404999971389795	394.6300048828124	-950.1600341796875	1.404999971389795	394.6300048828124	-254.2699890136719	-0.2560999989509441	231.3000030517578	-12.90034008026123	-4.961748600006104	-3.860302209854127	-12.90034008026123	4.961748600006104	3.860302209854124	-48.9080810546875	-4.081494808197021	-1.554103016853338	-1.85453188419342	-8.433812141418457	-3.555484056472778	-4.812843322753905	1.004755854606628	-8.423150062561035	-34.52199172973633	8.55235481262207	3.343500137329097	-37.45042037963867	-23.01781463623047	2.606127500534055	-11.91348171234131	-36.94174575805664	1.654280424118043	3.195893526077271	25.23409652709961	1.266610622406005	10.95225143432617	12.72852325439453	1.987037539482117	4.868820194542068e-32	-1.987846699118444e-16	-3.975693398236888e-16	-1.192708045940847e-15	1.192708045940846e-15	4.907496291121655e-15	-2.754041194915771	0	-3.372727734073552e-16	6.132423877716064	0	7.510053272859778e-16	-7.740488529205322	-2.762852430343628	0.1142536401748649	-7.740488529205322	2.762852430343628	-0.1142536401748668	9.658560752868652	6.56483268737793	3.61929750442505	9.658560752868652	-6.56483268737793	-3.619297504425047	4.199837684631346	-11.08591270446777	16.24870491027832	-54.21969223022461	-9.812011229556883e-13	-5.844858574402481e-15	-15.20611000061035	104.2319183349609	6.436202049255363	28.82033157348633	0.611066579818726	6.862185001373295	-32.617919921875	-9.243486916643215e-14	-4.02715623376167e-15	-3.468665361404419	81.84091186523438	0.5098213553428596	-3.1440110206604	-1.536141633987427	0.5073012709617613	-3.1440110206604	1.536141633987427	-0.5073012709617619	10.88552474975586	1.162585854530334	0.5547000169754041	10.88552474975586	-1.162585854530334	-0.5547000169754014	4.315374264606059e-33	0.5754753947257996	-3.52377050069505e-17	-1.271025894829398e-32	-1.694972634315491	1.037871405628411e-16	1.206471887212674e-32	1.60888683795929	-9.851590581485751e-17	1.23391075971861e-33	0.1645477861166	-1.007564597872388e-17	-2.693375934223029e-33	-0.3591743111610413	2.199308352496623e-17	7.064736814956645e-34	0.09421157836914062	-5.768795394619404e-18	2.470587383870593e-34	0.03294644132256508	-2.017387695448771e-18	2.470587383870593e-34	0.03294644132256508	-2.017387695448771e-18	-1.798752962806004e-33	-0.2398721426725388	1.468793258642709e-17	-1.798752962806004e-33	-0.2398721426725388	1.468793258642709e-17	2.129223814451436e-34	0.02839419804513454	-1.738643187516503e-18	5.484333303225085e-35	0.007313615642488003	-4.478297993383473e-19	4.874193117667595e-36	0.0006499965093098581	-3.980080722916353e-20	7.709233231945719e-35	0.01028062403202057	-6.295066657025673e-19	-2.736119771416139e-36	-0.0003648744022939354	2.234211344300358e-20	1.360380040134919e-35	0.001814130577258766	-1.110834602337644e-19	171.8219604492187	300.8284301757812	308.6824035644531	-147.0267333984375	124.7701110839844	217.2408294677734	-950.1600341796875	1.404999971389795	394.6300048828124	0.04962642863392832	-1.433856129646301	-0.1747349947690963	1.861217737197876	-6.29744291305542	0.01965433917939724	-1.348288655281067	-2.217180490493774	-0.8513914942741394	0.0574504099786282	-7.652591705322266	-0.3573173284530635	-2.915551424026489	1.747411131858826	-0.1715088933706288	-8.018452644348145	1.605864405632019	-0.3639177381992351	-13.25773239135742	34.90301513671875	-1.014433860778812	14.5250768661499	83.49893951416016	1.254698514938351	1.300583481788635	3.423985719680786	-0.09951595962047582	-1.424910068511963	8.191246032714844	-0.1230859309434898	1.300583481788635	3.423985719680786	-0.09951595962047582	-1.424910068511963	8.191246032714844	-0.1230859309434898	-1.219436287879944	-6.05620002746582	0.1324219703674319	-1.219436287879944	-6.05620002746582	0.1324219703674319	0.6625978350639343	-0.6823188662528992	-0.1001609787344931	0.6625978350639343	-0.6823188662528992	-0.1001609787344931	-0.1649433076381683	0.5143600106239319	-0.1696626394987107	-0.1990892738103867	0.5563085079193115	0.1040621697902679	0.08750218152999878	0.193607896566391	-0.05008928850293159	0.1164910569787025	0.2466794401407242	0.07386429607868195	-0.008710104972124098	0.05021636560559273	-0.00821658037602902	-0.02645278535783292	0.06703051179647446	0.06076140329241752	171.8219604492187	300.8284301757812	308.6824035644531	-51.16905975341797	300.8284301757812	-3.477543592453027	-147.0267333984375	124.7701110839844	217.2408294677734	45.33076095581055	124.7701110839844	-3.992462158203127	-950.1600341796875	1.404999971389795	394.6300048828124	45.33076095581055	124.7701110839844	-3.992462158203127	292.6019592285156	-0.6481677293777537	-116.4570236206054	-441.7816162109375	-44.36029815673827	174.7388305664062	-248.7609100341797	-40.11027526855469	-135.3923950195313	-231.9682464599609	-12.10703945159912	53.13993835449216	-267.4856872558594	-30.72608757019043	54.54782867431637	213.5954742431641	-12.83607292175293	7.487326622009304	33.03974533081052	37.70476150512697	214.5405120849609	694.6790161132812	111.2095565795898	-274.3933715820312	72.51148986816408	29.09825134277343	-109.3235168457031	72.51148986816405	-29.09825134277343	109.3235168457031	-467.4466552734375	-30.20266723632814	-191.1936645507813	-467.4466552734375	30.20266723632814	191.1936645507812	-28.84380722045899	-1.703075170516966	24.0074348449707	6.122433662414546	-8.309519767761229	33.27304458618164	0.9985092282295225	0.01888252794742597	2.112892389297485	24.55117225646972	-0.126284882426261	15.21823787689209	0.3631931841373444	2.338417093601266e-16	-0.3767521977424621	-2.079591751098633	6.811818355980361e-17	4.309160709381104	25347.82421875	3988.05908203125	-10146.6357421875	1256.024536132812	1358.283081054688	7724.8291015625	1256.024536132812	1358.283081054688	7724.8291015625	
